<svg xmlns="http://www.w3.org/2000/svg" version="1.1" xmlns:xlink="http://www.w3.org/1999/xlink" width="512" height="512"><svg xmlns="http://www.w3.org/2000/svg" version="1.1" xmlns:xlink="http://www.w3.org/1999/xlink" width="512" height="512"><svg width="512" height="512" viewBox="0 0 512 512" fill="none" xmlns="http://www.w3.org/2000/svg">
<path d="M196.396 287.804C196.845 287.678 197.236 287.384 197.471 286.977L259.5 181.159L317.641 285.8C317.871 286.205 318.247 286.512 318.697 286.614L397.434 307.234C398.129 307.409 398.844 307.167 399.29 306.586C399.744 305.99 399.779 305.24 399.425 304.628L261.245 59.8718C260.937 59.3321 260.356 58.9968 259.735 59C259.114 59.0033 258.537 59.3493 258.214 59.9092L115.329 307.394C114.967 308.022 115.009 308.793 115.436 309.356C115.862 309.919 116.588 310.156 117.274 309.965L196.412 287.814L196.396 287.804Z" fill="#101828"></path>
<path d="M34.1808 453.89L258.84 372L477.773 449.58C478.468 449.755 479.184 449.512 479.629 448.932C480.068 448.326 480.119 447.586 479.774 446.958L439.604 375.785C439.374 375.38 438.988 375.09 438.548 374.972L259.915 307.946C259.627 307.871 259.316 307.872 259 307.961L74.8559 378.496C74.4073 378.621 74.032 378.925 73.7973 379.332L32.245 451.303C31.8829 451.93 31.9252 452.701 32.3521 453.265C32.7787 453.827 33.4944 454.082 34.1808 453.89Z" fill="#101828"></path>
</svg></svg><style>@media (prefers-color-scheme: light) { :root { filter: none; } }
@media (prefers-color-scheme: dark) { :root { filter: invert(100%); } }
</style></svg>