<svg width="680" height="100" viewBox="0 0 680 100" fill="none" xmlns="http://www.w3.org/2000/svg">
<path d="M38.3586 56.2117C38.4463 56.1871 38.5227 56.1297 38.5686 56.0501L50.6836 35.3827L62.0392 55.8203C62.0843 55.8994 62.1576 55.9595 62.2456 55.9793L77.6238 60.0066C77.7595 60.0409 77.8993 59.9935 77.9863 59.8802C78.0751 59.7636 78.0818 59.6172 78.0126 59.4977L51.0244 11.6937C50.9642 11.5883 50.8508 11.5228 50.7295 11.5234C50.6081 11.5241 50.4956 11.5917 50.4325 11.701L22.5252 60.0378C22.4544 60.1605 22.4627 60.3111 22.5461 60.421C22.6294 60.5311 22.7711 60.5774 22.9051 60.54L38.3618 56.2136L38.3586 56.2117Z" fill="white"/>
<path d="M6.67593 88.6505L50.5547 72.6563L93.315 87.8086C93.4509 87.8428 93.5906 87.7954 93.6776 87.6821C93.7632 87.5637 93.7732 87.4191 93.7058 87.2964L85.8602 73.3956C85.8152 73.3165 85.7399 73.2598 85.6539 73.2366L50.7646 60.1457C50.7084 60.131 50.6477 60.1312 50.5859 60.1486L14.6203 73.925C14.5327 73.9494 14.4594 74.0089 14.4135 74.0883L6.29786 88.145C6.22712 88.2675 6.23539 88.4181 6.31877 88.5283C6.40208 88.6382 6.54187 88.6879 6.67593 88.6505Z" fill="white"/>
<path d="M148.957 39.196C148.753 37.1335 147.875 35.5312 146.324 34.3892C144.773 33.2472 142.668 32.6761 140.009 32.6761C138.202 32.6761 136.676 32.9318 135.432 33.4432C134.188 33.9375 133.233 34.6278 132.568 35.5142C131.92 36.4006 131.597 37.4062 131.597 38.5312C131.563 39.4688 131.759 40.2869 132.185 40.9858C132.628 41.6847 133.233 42.2898 134 42.8011C134.767 43.2955 135.653 43.7301 136.659 44.1051C137.665 44.4631 138.739 44.7699 139.881 45.0256L144.585 46.1506C146.869 46.6619 148.966 47.3437 150.875 48.196C152.784 49.0483 154.438 50.0966 155.835 51.3409C157.233 52.5852 158.315 54.0511 159.082 55.7386C159.866 57.4261 160.267 59.3608 160.284 61.5426C160.267 64.7472 159.449 67.5256 157.83 69.8778C156.227 72.2131 153.909 74.0284 150.875 75.3239C147.858 76.6023 144.219 77.2415 139.957 77.2415C135.73 77.2415 132.048 76.5938 128.912 75.2983C125.793 74.0028 123.355 72.0852 121.599 69.5455C119.861 66.9886 118.949 63.8267 118.864 60.0597H129.577C129.696 61.8153 130.199 63.2812 131.085 64.4574C131.989 65.6165 133.19 66.4943 134.69 67.0909C136.207 67.6705 137.92 67.9602 139.83 67.9602C141.705 67.9602 143.332 67.6875 144.713 67.142C146.111 66.5966 147.193 65.8381 147.96 64.8665C148.727 63.8949 149.111 62.7784 149.111 61.517C149.111 60.3409 148.761 59.3523 148.062 58.5511C147.381 57.75 146.375 57.0682 145.045 56.5057C143.733 55.9432 142.122 55.4318 140.213 54.9716L134.511 53.5398C130.097 52.4659 126.611 50.7869 124.054 48.5028C121.497 46.2187 120.227 43.142 120.244 39.2727C120.227 36.1023 121.071 33.3324 122.776 30.9631C124.497 28.5937 126.858 26.7443 129.858 25.4148C132.858 24.0852 136.267 23.4205 140.085 23.4205C143.972 23.4205 147.364 24.0852 150.261 25.4148C153.176 26.7443 155.443 28.5937 157.062 30.9631C158.682 33.3324 159.517 36.0767 159.568 39.196H148.957ZM167.731 76.5V24.1364H203.015V33.2642H178.802V45.7415H201.2V54.8693H178.802V67.3722H203.117V76.5H167.731ZM211.817 76.5V24.1364H222.888V67.3722H245.337V76.5H211.817ZM252.668 76.5V24.1364H287.339V33.2642H263.739V45.7415H285.038V54.8693H263.739V76.5H252.668ZM311.45 76.5V24.1364H322.521V45.7415H344.995V24.1364H356.04V76.5H344.995V54.8693H322.521V76.5H311.45ZM413.288 50.3182C413.288 56.0284 412.205 60.8864 410.04 64.892C407.893 68.8977 404.961 71.9574 401.245 74.071C397.546 76.1676 393.387 77.2159 388.768 77.2159C384.114 77.2159 379.938 76.1591 376.239 74.0455C372.54 71.9318 369.617 68.8722 367.469 64.8665C365.322 60.8608 364.248 56.0114 364.248 50.3182C364.248 44.608 365.322 39.75 367.469 35.7443C369.617 31.7386 372.54 28.6875 376.239 26.5909C379.938 24.4773 384.114 23.4205 388.768 23.4205C393.387 23.4205 397.546 24.4773 401.245 26.5909C404.961 28.6875 407.893 31.7386 410.04 35.7443C412.205 39.75 413.288 44.608 413.288 50.3182ZM402.063 50.3182C402.063 46.6193 401.509 43.5 400.401 40.9602C399.31 38.4205 397.768 36.4943 395.773 35.1818C393.779 33.8693 391.444 33.2131 388.768 33.2131C386.092 33.2131 383.756 33.8693 381.762 35.1818C379.768 36.4943 378.217 38.4205 377.109 40.9602C376.018 43.5 375.472 46.6193 375.472 50.3182C375.472 54.017 376.018 57.1364 377.109 59.6761C378.217 62.2159 379.768 64.142 381.762 65.4545C383.756 66.767 386.092 67.4233 388.768 67.4233C391.444 67.4233 393.779 66.767 395.773 65.4545C397.768 64.142 399.31 62.2159 400.401 59.6761C401.509 57.1364 402.063 54.017 402.063 50.3182ZM449.895 39.196C449.69 37.1335 448.813 35.5312 447.261 34.3892C445.71 33.2472 443.605 32.6761 440.946 32.6761C439.139 32.6761 437.614 32.9318 436.369 33.4432C435.125 33.9375 434.17 34.6278 433.506 35.5142C432.858 36.4006 432.534 37.4062 432.534 38.5312C432.5 39.4688 432.696 40.2869 433.122 40.9858C433.565 41.6847 434.17 42.2898 434.938 42.8011C435.705 43.2955 436.591 43.7301 437.597 44.1051C438.602 44.4631 439.676 44.7699 440.818 45.0256L445.523 46.1506C447.807 46.6619 449.903 47.3437 451.812 48.196C453.722 49.0483 455.375 50.0966 456.773 51.3409C458.17 52.5852 459.253 54.0511 460.02 55.7386C460.804 57.4261 461.205 59.3608 461.222 61.5426C461.205 64.7472 460.386 67.5256 458.767 69.8778C457.165 72.2131 454.847 74.0284 451.812 75.3239C448.795 76.6023 445.156 77.2415 440.895 77.2415C436.668 77.2415 432.986 76.5938 429.849 75.2983C426.73 74.0028 424.293 72.0852 422.537 69.5455C420.798 66.9886 419.886 63.8267 419.801 60.0597H430.514C430.634 61.8153 431.136 63.2812 432.023 64.4574C432.926 65.6165 434.128 66.4943 435.628 67.0909C437.145 67.6705 438.858 67.9602 440.767 67.9602C442.642 67.9602 444.27 67.6875 445.651 67.142C447.048 66.5966 448.131 65.8381 448.898 64.8665C449.665 63.8949 450.048 62.7784 450.048 61.517C450.048 60.3409 449.699 59.3523 449 58.5511C448.318 57.75 447.313 57.0682 445.983 56.5057C444.67 55.9432 443.06 55.4318 441.151 54.9716L435.449 53.5398C431.034 52.4659 427.548 50.7869 424.991 48.5028C422.435 46.2187 421.165 43.142 421.182 39.2727C421.165 36.1023 422.009 33.3324 423.713 30.9631C425.435 28.5937 427.795 26.7443 430.795 25.4148C433.795 24.0852 437.205 23.4205 441.023 23.4205C444.909 23.4205 448.301 24.0852 451.199 25.4148C454.114 26.7443 456.381 28.5937 458 30.9631C459.619 33.3324 460.455 36.0767 460.506 39.196H449.895ZM466.674 33.2642V24.1364H509.68V33.2642H493.648V76.5H482.705V33.2642H466.674ZM533.426 76.5V24.1364H554.085C558.057 24.1364 561.44 24.8949 564.236 26.4119C567.031 27.9119 569.162 30 570.628 32.6761C572.111 35.3352 572.852 38.4034 572.852 41.8807C572.852 45.358 572.102 48.4261 570.602 51.0852C569.102 53.7443 566.929 55.8153 564.082 57.2983C561.253 58.7812 557.827 59.5227 553.804 59.5227H540.636V50.6506H552.014C554.145 50.6506 555.901 50.2841 557.281 49.5511C558.679 48.8011 559.719 47.7699 560.401 46.4574C561.099 45.1278 561.449 43.6023 561.449 41.8807C561.449 40.142 561.099 38.625 560.401 37.3295C559.719 36.017 558.679 35.0028 557.281 34.2869C555.884 33.554 554.111 33.1875 551.963 33.1875H544.497V76.5H533.426ZM580.043 76.5V24.1364H600.702C604.657 24.1364 608.032 24.8437 610.827 26.2585C613.64 27.6562 615.779 29.642 617.245 32.2159C618.728 34.7727 619.469 37.7812 619.469 41.2415C619.469 44.7187 618.719 47.7102 617.219 50.2159C615.719 52.7045 613.546 54.6136 610.7 55.9432C607.87 57.2727 604.444 57.9375 600.421 57.9375H586.589V49.0398H598.631C600.745 49.0398 602.501 48.75 603.898 48.1705C605.296 47.5909 606.336 46.7216 607.018 45.5625C607.717 44.4034 608.066 42.9631 608.066 41.2415C608.066 39.5028 607.717 38.0369 607.018 36.8438C606.336 35.6506 605.288 34.7472 603.873 34.1335C602.475 33.5028 600.711 33.1875 598.58 33.1875H591.114V76.5H580.043ZM608.322 52.6705L621.336 76.5H609.114L596.381 52.6705H608.322ZM675.413 50.3182C675.413 56.0284 674.33 60.8864 672.165 64.892C670.018 68.8977 667.086 71.9574 663.37 74.071C659.671 76.1676 655.512 77.2159 650.893 77.2159C646.239 77.2159 642.063 76.1591 638.364 74.0455C634.665 71.9318 631.742 68.8722 629.594 64.8665C627.447 60.8608 626.373 56.0114 626.373 50.3182C626.373 44.608 627.447 39.75 629.594 35.7443C631.742 31.7386 634.665 28.6875 638.364 26.5909C642.063 24.4773 646.239 23.4205 650.893 23.4205C655.512 23.4205 659.671 24.4773 663.37 26.5909C667.086 28.6875 670.018 31.7386 672.165 35.7443C674.33 39.75 675.413 44.608 675.413 50.3182ZM664.188 50.3182C664.188 46.6193 663.634 43.5 662.526 40.9602C661.435 38.4205 659.893 36.4943 657.898 35.1818C655.904 33.8693 653.569 33.2131 650.893 33.2131C648.217 33.2131 645.881 33.8693 643.887 35.1818C641.893 36.4943 640.342 38.4205 639.234 40.9602C638.143 43.5 637.597 46.6193 637.597 50.3182C637.597 54.017 638.143 57.1364 639.234 59.6761C640.342 62.2159 641.893 64.142 643.887 65.4545C645.881 66.767 648.217 67.4233 650.893 67.4233C653.569 67.4233 655.904 66.767 657.898 65.4545C659.893 64.142 661.435 62.2159 662.526 59.6761C663.634 57.1364 664.188 54.017 664.188 50.3182Z" fill="white"/>
</svg>
